<?xml version="1.0" encoding="UTF-8"?><svg id="Layer_1" xmlns="http://www.w3.org/2000/svg" viewBox="0 0 370 290"><defs><style>.cls-1{fill:#001999;}.cls-1,.cls-2{stroke-width:0px;}.cls-2{fill:#b0e5ff;}</style></defs><path class="cls-1" d="M358.22,183.59l-69.09-88.93-.27-.33c-9.91-12.18-18.05-22.6-24.6-30.97-15.2-19.44-24.38-31.18-35.14-39.02-13.34-9.71-26.56-11.66-43.57-11.66s-30.23,1.95-43.57,11.66c-10.76,7.83-19.94,19.57-35.14,39.01l-.06.08c-6.53,8.35-14.66,18.75-24.52,30.87l-.27.34L9.99,187.88v89.44l50.01-.2h0s53.09-69.81,53.09-69.81v27.56l1.19.68,70.04,40.28,1.18.68,1.18-.68,70.04-40.28,1.19-.68v-27.75l51.99,66.93v1.55h50.13v-89.7l-1.79-2.31Z"/><polygon class="cls-2" points="217.62 151.26 214.25 151.46 215.22 148.22 225.31 114.37 199.07 135.48 196.19 137.8 195.29 134.22 185.68 95.74 176.69 135.49 175.84 139.24 172.87 136.79 145.86 114.53 155.89 148.12 156.85 151.35 153.49 151.16 141.29 150.49 122.96 150.13 185.55 186.12 247.7 149.53 229.88 150.55 217.62 151.26"/><path class="cls-2" d="M287.26,96.11l-.25-.31c-9.9-12.18-18.06-22.61-24.61-30.99-15.07-19.28-24.17-30.92-34.67-38.56-12.82-9.33-25.64-11.21-42.17-11.21s-29.35,1.87-42.17,11.21c-10.5,7.64-19.6,19.28-34.67,38.56-6.55,8.38-14.7,18.81-24.61,30.99l-.25.31L13.48,186.71h45.39l53.18-68.45c10.06-12.38,18.29-22.9,24.91-31.37,28.14-36,28.52-36,48.6-36s20.46,0,48.6,36c6.62,8.47,14.85,18.99,24.91,31.37l53.18,68.45h45.39l-70.39-90.6Z"/></svg>